#!OML:ASF E:\emotionWalksFemale\Project 1\Capture day 1\Session 1\Female1.ASF
:FULLY-SPECIFIED
:DEGREES
1
root 9.62888 15.3768 -39.0184 -0.695586 -1.10765 0.418722
lowerback 6.74208 0.663865 0.0387948
upperback -4.67888 0.856449 -0.49007
thorax -8.7206 0.397929 -0.661616
lowerneck -6.02662 -5.51572 -7.84345
upperneck 20.357 -7.51812 4.58687
head 7.7283 -3.80186 2.15524
rclavicle -1.13928e-014 3.67752e-015
rhumerus -45.5753 22.9281 -103.266
rradius 33.3045
rwrist 12.5887
rhand -2.6855 -53.3322
rfingers 7.12502
rthumb 23.0158 -81.978
lclavicle -1.13928e-014 3.67752e-015
lhumerus -43.5462 -3.44666 88.035
lradius 36.0961
lwrist -11.0681
lhand -0.0767595 -37.2612
lfingers 7.12502
lthumb 25.5168 -8.94993
rfemur -3.92129 20.4443 24.0305
rtibia 26.5411
rfoot -21.6459 -32.8673
rtoes -4.60969
lfemur -7.12463 -21.5817 -26.2195
ltibia 28.7412
lfoot -25.5853 21.6806
ltoes -8.34532
2
root 9.63047 15.3757 -39.0185 -0.707304 -1.13373 0.449915
lowerback 6.89928 0.715708 0.0189569
upperback -4.71751 0.920048 -0.533533
thorax -8.85424 0.427903 -0.708538
lowerneck -6.11432 -5.50695 -7.70699
upperneck 20.4095 -7.5107 4.54191
head 7.75332 -3.7905 2.11634
rclavicle -1.26601e-014 -1.2921e-015
rhumerus -45.613 22.4518 -103.064
rradius 33.3673
rwrist 12.7765
rhand -2.7974 -52.6128
rfingers 7.12502
rthumb 22.9084 -81.2719
lclavicle -1.26601e-014 -1.2921e-015
lhumerus -43.6424 -3.1716 87.8797
lradius 36.0446
lwrist -11.3205
lhand -0.822957 -37.1255
lfingers 7.12502
lthumb 24.8019 -8.71389
rfemur -3.88457 20.6208 24.0219
rtibia 26.5064
rfoot -21.4572 -33.262
rtoes -5.26678
lfemur -7.11123 -21.5707 -26.2569
ltibia 28.7844
lfoot -25.5571 22.0364
ltoes -10.1197
3
root 9.63387 15.3747 -39.013 -0.718914 -1.23355 0.386441
lowerback 7.09024 0.778607 0.0685385
upperback -4.81889 1.01061 -0.519062
thorax -9.07597 0.468177 -0.738885
lowerneck -6.12499 -5.46613 -7.61235
upperneck 20.5002 -7.46125 4.49997
head 7.77626 -3.76344 2.0914
rclavicle -1.34055e-014 9.14409e-015
rhumerus -45.801 22.0727 -102.91
rradius 33.407
rwrist 13.0569
rhand -2.37838 -52.7768
rfingers 7.12502
rthumb 23.3104 -81.3856
lclavicle -1.34055e-014 9.14409e-015
lhumerus -44.3825 -2.66201 87.7747
lradius 36.5043
lwrist -11.8111
lhand -1.15949 -37.0876
lfingers 7.12502
lthumb 24.4793 -8.63189
rfemur -3.83775 20.6291 24.0711
rtibia 26.4353
rfoot -21.3943 -33.1895
rtoes -5.33954
lfemur -7.09475 -21.5023 -26.2264
ltibia 28.8427
lfoot -25.4335 22.2497
ltoes -11.3546
4
root 9.63564 15.3726 -39.0114 -0.770759 -1.21788 0.361731
lowerback 6.78608 0.800447 -0.0451737
upperback -4.58106 1.03614 -0.425978
thorax -8.64099 0.493195 -0.571638
lowerneck -6.16292 -5.39897 -7.60326
upperneck 20.2081 -7.35719 4.52351
head 7.67982 -3.70921 2.10783
rclavicle -1.58407e-014 6.85807e-015
rhumerus -45.4844 22.0657 -102.534
rradius 33.4095
rwrist 13.0859
rhand -1.38012 -53.63
rfingers 7.12502
rthumb 24.2678 -82.1141
lclavicle -1.58407e-014 6.85807e-015
lhumerus -43.6897 -3.12114 87.8926
lradius 36.1634
lwrist -11.2785
lhand -1.4132 -37.1494
lfingers 7.12502
lthumb 24.2361 -8.66102
rfemur -3.74286 20.5696 24.1117
rtibia 26.3847
rfoot -21.4003 -33.1587
rtoes -5.56326
lfemur -7.05432 -21.4531 -26.2214
ltibia 28.8901
lfoot -25.3857 22.2348
ltoes -11.6329
5
root 9.64013 15.3782 -39.0059 -0.555952 -1.36802 0.328443
lowerback 6.52821 0.855647 0.0453254
upperback -4.62966 1.11836 -0.449374
thorax -8.53923 0.527675 -0.654565
lowerneck -6.10449 -5.2957 -7.58548
upperneck 20.0573 -7.24096 4.65808
head 7.61534 -3.64145 2.16259
rclavicle -3.26752e-015 9.93923e-016
rhumerus -45.4266 21.7613 -102.32
rradius 33.4995
rwrist 12.8253
rhand -1.08089 -53.8483
rfingers 7.12502
rthumb 24.5547 -82.2938
lclavicle -3.26752e-015 9.93923e-016
lhumerus -43.6932 -3.50626 88.0583
lradius 36.185
lwrist -11.5843
lhand -2.75624 -36.3311
lfingers 7.12502
lthumb 22.9479 -7.67691
rfemur -3.98692 20.5793 24.0187
rtibia 26.3334
rfoot -21.3103 -33.0072
rtoes -5.93092
lfemur -7.28278 -21.5027 -26.1308
ltibia 28.9207
lfoot -25.51 22.3213
ltoes -11.458
6
root 9.64406 15.3739 -39.0008 -0.651146 -1.52246 0.262085
lowerback 6.55747 0.920571 0.0365471
upperback -4.58811 1.21105 -0.366566
thorax -8.51242 0.576387 -0.574961
lowerneck -5.99246 -5.24621 -7.68333
upperneck 19.9387 -7.17811 4.73944
head 7.55868 -3.61318 2.21465
rclavicle -4.62174e-015 2.48481e-015
rhumerus -45.4015 21.5948 -102.041
rradius 33.6272
rwrist 12.4492
rhand -1.75 -53.1424
rfingers 7.12502
rthumb 23.9132 -81.6735
lclavicle -4.62174e-015 2.48481e-015
lhumerus -44.0885 -4.21425 88.8565
lradius 36.5723
lwrist -12.8262
lhand -6.56028 -33.6479
lfingers 7.12502
lthumb 19.2937 -4.585
rfemur -3.86542 20.731 24.1139
rtibia 26.2977
rfoot -21.3122 -32.9318
rtoes -6.08123
lfemur -7.16278 -21.529 -26.1468
ltibia 28.9331
lfoot -25.5275 22.6184
ltoes -12.2436
